<?xml version="1.0" standalone="no"?>
<!DOCTYPE svg PUBLIC "-//W3C//DTD SVG 20010904//EN"
 "http://www.w3.org/TR/2001/REC-SVG-20010904/DTD/svg10.dtd">
<svg version="1.0" xmlns="http://www.w3.org/2000/svg"
 width="1920.000000pt" height="1080.000000pt" viewBox="0 0 1920.000000 1080.000000"
 preserveAspectRatio="xMidYMid meet">

<g transform="translate(0.000000,1080.000000) scale(0.100000,-0.100000)"
fill="#000000" stroke="none">
<path d="M0 10687 l0 -113 53 -46 c45 -39 57 -59 91 -142 36 -91 38 -101 39
-208 0 -114 -6 -141 -63 -263 -5 -11 -14 -32 -20 -47 -5 -16 -14 -28 -20 -28
-5 0 -10 -8 -10 -18 0 -10 -16 -35 -35 -55 l-35 -37 0 -1185 0 -1185 58 32
c95 52 124 64 200 84 65 16 81 17 160 5 102 -14 188 -47 290 -109 219 -133
290 -458 165 -762 -59 -144 -174 -279 -282 -328 -48 -22 -75 -26 -240 -34
-261 -14 -251 -14 -303 -5 l-48 8 0 -3125 0 -3126 9600 0 9600 0 0 5400 0
5400 -2615 0 c-1438 0 -2615 -3 -2615 -8 0 -4 6 -16 14 -27 26 -38 37 -154 21
-229 -35 -172 -175 -365 -305 -424 -19 -8 -55 -25 -80 -36 -71 -33 -194 -30
-285 8 -194 79 -331 244 -354 427 -11 83 0 197 23 254 l15 35 -1867 0 -1867 0
0 -113 c-1 -128 -8 -157 -73 -286 -46 -92 -131 -193 -186 -219 -66 -33 -187
-64 -268 -69 l-89 -6 -82 42 c-140 71 -231 151 -275 241 -39 80 -74 220 -79
313 l-6 97 -4113 0 -4114 0 0 -113z m14981 -323 c99 -30 209 -102 284 -187 61
-70 135 -222 151 -311 7 -39 13 -105 13 -147 1 -67 -3 -83 -30 -134 -72 -136
-171 -242 -259 -281 -100 -45 -201 -74 -253 -74 -42 0 -146 27 -161 41 -6 5
-16 9 -24 9 -19 0 -98 56 -148 104 -52 50 -107 129 -125 179 -7 20 -16 37 -20
37 -3 0 -14 34 -24 76 -28 121 -18 208 39 325 71 145 83 164 148 224 60 56
115 89 218 131 67 27 119 29 191 8z m-7905 -938 c45 -12 109 -41 124 -56 3 -3
19 -12 35 -20 48 -23 148 -92 167 -115 10 -11 23 -32 30 -47 7 -16 16 -28 20
-28 10 0 48 -84 48 -105 0 -9 8 -30 17 -48 9 -18 18 -43 19 -57 1 -22 29 -93
55 -142 5 -10 9 -24 9 -33 0 -16 28 -10 45 10 7 8 28 11 63 7 61 -5 70 -22 12
-22 -22 0 -40 -4 -40 -10 0 -5 18 -10 40 -10 l40 0 0 -87 c-1 -57 -6 -97 -15
-113 -20 -34 -19 -74 3 -92 9 -9 40 -21 69 -28 39 -9 58 -20 77 -44 23 -30 24
-35 10 -55 -8 -11 -20 -21 -26 -21 -6 0 -40 -14 -74 -31 -35 -16 -72 -31 -83
-32 -12 -1 -21 -4 -21 -8 0 -12 -136 -21 -156 -11 -11 6 -47 16 -81 23 -43 8
-70 20 -90 39 -35 34 -104 55 -132 40 -11 -5 -31 -10 -45 -10 -14 0 -29 -8
-34 -17 -19 -34 -307 -21 -389 17 -24 11 -51 20 -61 20 -21 0 -42 18 -42 37 0
12 -34 53 -45 53 -11 0 -55 52 -55 65 0 8 -4 15 -10 15 -5 0 -12 11 -16 25 -3
14 -9 25 -13 25 -9 0 -48 81 -55 115 -4 17 -8 39 -10 50 -2 11 -9 44 -15 74
-14 70 -7 200 13 239 9 17 16 36 16 43 0 17 59 138 78 160 10 10 30 34 47 54
16 19 36 35 43 35 7 0 15 7 18 15 3 8 49 28 102 46 154 50 223 58 308 35z
m-1715 -386 l79 0 0 -30 c0 -29 2 -30 43 -30 39 0 45 -3 58 -32 8 -17 23 -36
34 -42 26 -15 45 -33 45 -43 0 -5 14 -30 30 -56 21 -34 30 -60 30 -90 0 -24 6
-49 13 -56 10 -11 10 -14 0 -18 -17 -6 -16 -23 1 -23 19 0 26 -22 26 -86 0
-30 5 -54 10 -54 15 0 13 -215 -2 -232 -7 -7 -22 -30 -32 -51 -13 -24 -32 -43
-53 -52 -18 -8 -45 -25 -60 -39 -15 -14 -35 -26 -45 -26 -9 0 -18 -5 -20 -11
-2 -7 -45 -15 -101 -20 -54 -4 -103 -11 -109 -15 -29 -18 -238 8 -263 32 -7 8
-30 14 -49 14 -22 0 -36 5 -36 13 0 7 -9 18 -20 25 -11 7 -20 19 -20 27 0 8
-8 15 -19 15 -10 0 -21 8 -25 18 -3 9 -14 31 -25 48 -10 17 -22 45 -26 62 -3
18 -13 32 -20 32 -15 0 -14 84 4 196 12 83 20 106 32 99 4 -3 13 13 19 35 6
22 17 40 24 40 21 0 40 27 24 33 -16 5 28 57 50 57 27 0 94 55 125 103 9 15
26 27 36 27 26 0 53 33 44 56 -6 17 -5 18 11 5 13 -11 19 -12 25 -3 4 6 23 18
44 27 38 16 51 45 20 45 -15 0 -16 2 -3 10 10 6 16 6 18 0 2 -6 39 -10 83 -10z
m-1584 -164 c97 -26 206 -89 279 -161 44 -44 114 -139 114 -155 0 -6 9 -29 20
-53 44 -94 44 -290 1 -376 -12 -22 -21 -47 -21 -56 0 -8 -4 -15 -8 -15 -5 0
-15 -12 -23 -27 -7 -16 -24 -42 -36 -59 -13 -17 -23 -34 -23 -37 0 -11 -89
-96 -127 -121 -57 -38 -170 -77 -232 -81 -31 -2 -67 -6 -81 -10 -18 -4 -62 8
-145 40 -66 26 -128 49 -137 52 -10 3 -18 9 -18 14 0 5 -9 9 -19 9 -31 0 -110
85 -143 154 -11 23 -26 52 -34 66 -7 14 -14 33 -14 42 0 9 -4 20 -10 23 -18
11 -11 150 15 295 7 39 62 157 82 178 7 7 13 18 13 23 0 26 141 166 205 203
47 28 187 63 255 65 19 0 59 -6 87 -13z m3953 -66 c0 -5 -4 -10 -10 -10 -5 0
-10 5 -10 10 0 6 5 10 10 10 6 0 10 -4 10 -10z m10989 -60 c35 -6 85 -12 112
-14 37 -2 56 -9 76 -29 16 -14 39 -36 53 -49 34 -31 80 -94 74 -101 -3 -2 8
-19 25 -37 16 -18 27 -38 25 -44 -3 -7 6 -57 19 -112 21 -87 23 -112 16 -209
-4 -60 -13 -143 -21 -183 -12 -67 -17 -76 -67 -127 -30 -30 -61 -55 -68 -55
-8 0 -34 -12 -58 -26 -25 -14 -79 -34 -120 -44 -42 -10 -82 -24 -89 -30 -8 -6
-43 -13 -79 -17 -66 -6 -112 4 -147 32 -8 7 -31 15 -50 19 -19 4 -57 22 -85
40 -64 43 -175 150 -175 170 0 8 -10 27 -23 43 -53 65 -88 246 -75 390 2 23 7
45 11 49 4 4 7 22 7 41 0 18 3 33 8 33 4 0 16 16 26 35 13 23 43 49 90 77 39
23 76 47 83 53 31 26 39 31 53 38 8 4 22 11 30 16 92 57 193 69 349 41z
m-4870 -247 c12 -11 39 -28 59 -38 20 -10 44 -21 52 -25 8 -4 14 -17 13 -28
-1 -11 4 -26 12 -32 8 -7 15 -24 15 -39 0 -19 3 -22 9 -12 6 9 15 11 27 6 18
-8 18 -8 2 -12 -26 -6 -22 -24 12 -61 17 -18 30 -42 30 -52 0 -10 4 -21 9 -24
15 -10 48 -89 56 -133 4 -24 12 -43 18 -44 7 0 3 -4 -8 -9 -16 -7 -16 -9 -4
-9 11 -1 19 -13 23 -36 7 -36 26 -49 26 -17 0 14 2 14 9 3 12 -18 3 -41 -15
-41 -8 0 -14 -5 -14 -11 0 -5 4 -8 9 -4 5 3 12 1 15 -4 3 -5 -7 -21 -24 -34
-23 -20 -30 -33 -29 -59 1 -18 -4 -62 -11 -98 -6 -36 -14 -74 -16 -86 -2 -11
-15 -33 -29 -48 -14 -15 -25 -33 -25 -41 0 -16 -21 -67 -31 -75 -3 -3 -14 -20
-24 -39 -14 -28 -15 -35 -3 -43 10 -7 10 -11 1 -15 -7 -2 -13 -11 -13 -19 0
-14 22 -22 80 -28 83 -9 116 -20 140 -45 14 -15 32 -25 41 -23 12 2 17 -7 21
-40 13 -118 -9 -237 -48 -252 -8 -3 -14 -12 -14 -19 0 -8 -13 -33 -30 -55 -16
-23 -30 -46 -30 -51 0 -11 -94 -91 -108 -91 -5 0 -15 -7 -22 -15 -16 -19 -160
-65 -205 -65 -34 0 -65 -18 -65 -37 0 -4 -10 -14 -21 -22 -18 -10 -19 -15 -8
-22 11 -7 7 -15 -19 -39 -18 -17 -31 -34 -28 -39 3 -4 -5 -6 -19 -4 -13 3 -34
-2 -47 -11 -12 -9 -32 -16 -44 -16 -12 0 -24 -5 -26 -11 -2 -7 -33 -12 -73
-13 -39 -1 -79 -7 -90 -13 -31 -17 -86 -40 -137 -58 -27 -9 -48 -21 -48 -26 0
-5 -18 -9 -39 -9 -22 0 -41 -4 -43 -8 -1 -5 -56 -12 -120 -16 -101 -5 -118 -4
-118 9 0 17 -16 20 -25 6 -3 -5 -29 -17 -59 -25 -45 -13 -68 -30 -159 -120
-58 -58 -117 -108 -132 -112 -14 -3 -25 -9 -25 -13 0 -4 -13 -12 -30 -18 -20
-8 -30 -18 -30 -32 0 -14 -6 -21 -19 -21 -10 0 -24 -7 -31 -15 -7 -8 -21 -15
-31 -15 -11 0 -19 -4 -19 -10 0 -5 7 -10 15 -10 8 0 15 -4 15 -10 0 -11 -28
-9 -48 4 -7 4 -19 2 -28 -5 -9 -8 -18 -9 -22 -3 -9 12 -52 16 -52 5 0 -5 -9
-11 -21 -14 -15 -4 -19 -2 -15 9 5 12 2 12 -18 -1 -12 -8 -25 -13 -28 -10 -8
9 -98 -33 -104 -48 -3 -8 -19 -13 -40 -12 -20 0 -38 -3 -40 -7 -3 -5 -9 -6
-14 -3 -4 3 -13 -2 -20 -10 -19 -23 -50 -19 -50 8 -1 20 -2 20 -11 5 -12 -22
-38 -23 -45 -3 -4 8 -12 15 -20 15 -8 0 -14 -7 -14 -15 0 -12 -16 -15 -84 -15
-62 0 -87 4 -96 15 -14 17 -60 21 -60 5 0 -20 -19 -9 -32 17 -7 15 -24 33 -36
39 -13 6 -29 17 -35 23 -6 6 -21 11 -34 11 -13 0 -23 4 -23 9 0 12 -59 71 -71
71 -5 0 -9 5 -9 11 0 6 -7 17 -15 25 -10 10 -15 35 -15 70 0 30 -7 71 -15 91
-8 19 -15 37 -15 39 0 2 7 4 15 4 11 0 15 11 15 40 0 36 -2 40 -25 40 -14 0
-25 5 -25 10 0 6 -27 10 -60 10 -59 0 -70 6 -49 27 7 7 3 12 -17 17 -17 5 -30
3 -34 -5 -5 -8 -14 -2 -26 17 -28 44 -54 58 -54 29 0 -12 -4 -11 -20 5 -11 11
-29 20 -40 20 -11 0 -20 6 -20 13 0 14 -40 37 -65 37 -8 0 -15 5 -15 10 0 6
-5 10 -12 10 -6 0 -22 10 -35 22 -20 19 -25 20 -33 8 -7 -12 -12 -12 -22 -2
-22 22 -47 12 -95 -40 -100 -107 -231 -179 -382 -209 -74 -14 -266 3 -350 32
-73 25 -126 25 -144 -1 -15 -21 -117 -75 -164 -86 -15 -4 -34 -12 -42 -18 -8
-6 -57 -10 -124 -8 -110 1 -110 1 -139 -28 -15 -17 -33 -30 -39 -30 -6 0 -23
-8 -37 -19 -15 -10 -43 -21 -62 -24 -40 -8 -88 -19 -175 -41 -33 -9 -83 -16
-112 -16 -33 0 -72 -9 -105 -24 -246 -110 -456 -114 -640 -11 -24 14 -56 32
-73 41 -41 23 -123 102 -150 145 -20 31 -56 113 -95 219 -22 60 -25 221 -4
287 21 72 51 140 64 148 5 3 6 13 3 22 -4 10 -2 14 4 10 6 -4 16 7 23 23 7 17
18 34 24 38 7 4 19 16 27 28 79 116 351 234 540 234 62 0 161 -28 207 -58 21
-14 51 -17 162 -17 117 0 140 -3 175 -21 47 -24 68 -22 85 11 14 25 30 33 30
15 0 -5 -4 -10 -10 -10 -5 0 -10 -4 -10 -8 0 -13 89 -12 103 1 12 13 49 18
129 18 49 1 101 -21 116 -48 12 -21 40 -11 51 20 5 12 16 29 25 36 9 7 29 37
46 66 20 34 39 55 55 59 13 3 35 16 47 29 35 34 159 100 282 151 65 27 191 56
244 56 63 0 103 -15 230 -84 98 -54 142 -68 142 -46 0 27 89 147 140 190 61
50 177 101 267 118 57 10 174 5 187 -8 6 -6 17 -10 24 -10 18 0 146 -62 150
-72 8 -18 45 -6 78 24 19 18 56 40 82 51 26 10 75 32 110 48 34 16 67 29 74
29 44 0 168 88 168 120 0 16 47 12 54 -5 9 -24 45 -18 56 10 5 14 14 25 20 25
17 0 25 3 38 17 7 7 25 13 38 13 14 0 37 6 52 14 31 15 206 41 221 32 5 -4 12
-2 16 4 9 14 42 13 48 -2 3 -10 11 -10 38 1 107 42 116 44 229 44 63 0 151 -3
195 -7 79 -7 80 -7 108 21 41 42 87 99 87 109 0 5 14 20 31 34 17 14 36 30 43
35 41 37 88 65 105 65 12 0 21 6 21 13 0 7 16 19 35 25 19 7 60 32 92 55 32
23 78 51 103 61 25 10 74 34 110 52 63 33 68 35 156 31 75 -3 96 -8 113 -24z
m-6599 -273 c0 -5 -4 -10 -10 -10 -5 0 -10 5 -10 10 0 6 5 10 10 10 6 0 10 -4
10 -10z m6925 -169 c3 -5 1 -12 -5 -16 -5 -3 -10 1 -10 9 0 18 6 21 15 7z
m-8355 -497 c144 -7 231 -25 260 -54 3 -3 30 -18 60 -34 30 -16 71 -41 90 -55
42 -31 130 -118 130 -130 0 -4 9 -16 20 -26 11 -10 20 -23 20 -29 0 -17 40
-38 53 -28 33 25 249 72 328 72 83 -1 194 -38 299 -101 113 -68 310 -256 310
-297 0 -5 7 -23 16 -41 18 -36 22 -53 23 -96 1 -20 4 -26 10 -17 5 9 10 -1 14
-30 4 -28 2 -45 -6 -50 -9 -6 -9 -8 -1 -8 15 0 23 -67 13 -100 -6 -21 -7 -19
-8 14 -1 55 -9 41 -12 -22 -2 -28 -6 -52 -11 -52 -4 0 -8 -18 -8 -40 0 -33 -3
-40 -20 -40 -11 0 -20 -6 -20 -12 0 -23 -44 -105 -80 -148 -59 -72 -100 -115
-100 -105 0 6 -4 5 -8 -1 -14 -22 -89 -52 -196 -79 -141 -35 -288 -33 -376 5
-215 94 -314 185 -376 345 -15 39 -28 71 -30 73 -3 4 -102 -46 -134 -68 -21
-15 -36 -17 -100 -10 -41 4 -76 7 -78 5 -1 -1 19 -13 45 -26 108 -54 393 -232
393 -245 0 -4 -37 -4 -82 -1 -71 4 -97 12 -179 50 -53 25 -112 59 -132 77 -37
32 -87 111 -87 137 0 7 -11 18 -24 23 -42 16 -226 32 -391 34 l-160 2 -67 69
c-40 41 -80 95 -98 132 -17 35 -37 63 -43 63 -7 0 -27 -27 -46 -60 -73 -128
-160 -207 -276 -254 -37 -15 -37 -16 -7 -10 17 3 32 3 32 0 0 -10 -87 -56
-106 -56 -11 0 -24 -4 -29 -9 -17 -16 -139 -40 -181 -36 -122 14 -146 30 -41
29 119 -2 145 31 33 43 -31 3 -61 12 -67 19 -6 8 -23 14 -38 14 -18 0 -22 3
-13 9 10 6 0 14 -32 30 -25 11 -46 26 -46 31 0 6 -9 10 -20 10 -11 0 -20 6
-20 13 -1 6 -18 26 -39 42 -41 32 -84 93 -96 135 -3 14 -15 43 -24 65 -26 58
-53 201 -52 270 2 70 23 140 63 208 15 26 28 50 28 54 0 12 95 139 119 158 35
29 119 71 166 83 156 41 168 43 231 37 49 -6 88 -19 162 -57 53 -28 99 -53
102 -57 3 -4 20 -17 37 -30 37 -25 118 -126 133 -165 5 -14 14 -26 19 -26 5 0
28 34 51 76 68 124 152 195 283 239 96 32 222 55 267 49 19 -2 87 -7 150 -10z
m-3020 -209 c7 -8 37 -22 66 -31 30 -8 57 -21 61 -28 5 -7 25 -19 46 -25 25
-9 37 -19 37 -31 0 -21 27 -35 33 -17 2 7 7 -3 11 -21 4 -18 16 -37 27 -42 10
-6 19 -17 19 -25 0 -8 4 -15 9 -15 5 0 14 -30 21 -67 22 -130 33 -149 80 -145
3 0 52 -3 109 -8 114 -10 187 -30 241 -67 19 -12 38 -23 42 -23 14 0 99 -62
141 -103 65 -63 91 -104 126 -195 25 -69 31 -98 31 -166 0 -86 -13 -180 -32
-231 -59 -157 -135 -253 -258 -329 -30 -19 -104 -51 -165 -71 -103 -35 -114
-37 -210 -33 -75 3 -120 11 -180 32 -77 26 -236 110 -243 128 -2 4 -7 6 -12 3
-5 -3 -11 4 -15 14 -3 11 -15 23 -26 26 -10 4 -19 9 -19 13 0 8 -107 123 -132
141 -14 11 -21 11 -33 1 -13 -11 -15 -7 -15 29 l0 41 -40 0 c-22 0 -40 -4 -40
-10 0 -5 -18 -10 -40 -10 -33 0 -40 -3 -40 -20 0 -18 -7 -20 -80 -20 -64 0
-80 3 -80 15 0 22 -77 21 -82 -2 -3 -15 -4 -15 -17 0 -12 15 -11 17 3 17 10 0
16 9 16 25 0 23 -4 25 -40 25 -29 0 -40 4 -40 15 0 11 11 15 40 15 l40 0 0 57
c0 54 -1 55 -18 40 -10 -10 -28 -17 -40 -17 -13 0 -22 -6 -22 -15 0 -8 -16
-21 -35 -29 -19 -8 -43 -23 -53 -33 -24 -22 -61 -121 -72 -188 -13 -82 -30
-135 -44 -135 -7 0 -19 -18 -26 -40 -7 -22 -17 -40 -22 -40 -20 0 -69 -60 -64
-78 5 -14 -3 -21 -36 -33 -34 -12 -44 -21 -46 -41 -4 -35 -31 -41 -161 -39
-104 2 -157 15 -131 31 9 6 7 10 -9 15 -24 7 -29 25 -7 25 26 0 28 20 4 29
-23 10 -22 10 5 10 34 1 34 14 2 39 -28 22 -33 42 -10 42 11 0 15 11 15 40 0
29 -4 40 -15 40 -12 0 -15 16 -15 80 0 61 3 80 14 80 9 0 12 8 8 25 -2 14 -8
25 -13 25 -5 0 -9 11 -9 23 0 18 -10 29 -40 43 -24 12 -40 26 -40 37 0 10 -7
20 -16 24 -8 3 -13 12 -9 21 3 8 1 20 -3 26 -5 6 -12 37 -15 69 -3 32 -13 69
-22 83 -8 13 -11 24 -6 24 5 0 7 9 4 19 -7 25 14 62 31 55 9 -3 13 1 13 12 -2
12 13 24 48 38 28 12 52 24 55 27 6 7 66 39 75 39 3 0 5 -7 5 -15 0 -12 13
-15 59 -15 33 0 62 -4 65 -9 3 -4 22 -11 43 -14 21 -3 46 -8 56 -12 13 -5 17
-2 17 14 0 12 6 21 15 21 11 0 15 11 15 40 0 22 5 40 10 40 6 0 10 18 10 40 0
29 4 40 15 40 9 0 15 9 15 25 0 23 4 25 44 25 26 0 48 6 56 15 7 8 23 15 36
15 13 0 24 4 24 9 0 12 59 71 71 71 5 0 9 7 9 15 0 8 5 15 12 15 12 0 97 -89
98 -102 0 -5 15 -8 34 -8 32 0 36 3 53 48 20 53 61 112 79 112 7 0 19 18 28
40 9 22 20 40 25 40 10 0 29 42 36 80 14 73 17 81 31 76 9 -3 12 -1 9 4 -4 6
7 21 23 35 16 13 32 38 35 55 4 17 10 29 14 28 12 -3 83 25 83 33 0 11 42 16
141 18 66 1 89 -3 99 -14z m6380 -215 c0 -5 -9 -10 -20 -10 -11 0 -20 5 -20
10 0 6 9 10 20 10 11 0 20 -4 20 -10z m-4074 -729 c-3 -5 -20 -14 -36 -20 -35
-12 -32 5 4 19 28 12 38 12 32 1z m-88 -20 c11 -6 6 -14 -18 -31 -17 -12 -34
-20 -36 -17 -3 3 6 13 21 23 20 13 23 19 13 25 -7 5 -8 9 -3 9 6 0 16 -4 23
-9z m-2988 -241 c0 -5 -7 -10 -15 -10 -8 0 -15 5 -15 10 0 6 7 10 15 10 8 0
15 -4 15 -10z m2590 -130 c0 -11 -7 -20 -15 -20 -15 0 -21 21 -8 33 12 13 23
7 23 -13z m40 -10 c0 -5 -4 -10 -10 -10 -5 0 -10 5 -10 10 0 6 5 10 10 10 6 0
10 -4 10 -10z m7838 -88 c-10 -2 -18 -8 -18 -14 0 -6 -2 -9 -5 -6 -12 12 7 37
23 30 16 -6 15 -7 0 -10z m-2295 -68 c20 -10 37 -21 37 -26 0 -4 10 -8 23 -8
32 -1 59 -24 51 -46 -5 -15 -4 -16 4 -5 9 12 16 10 46 -13 20 -15 36 -33 36
-41 0 -7 6 -16 13 -19 10 -5 10 -7 0 -12 -20 -9 -15 -24 12 -46 14 -11 25 -25
25 -33 0 -7 7 -18 15 -25 9 -7 15 -29 15 -51 0 -22 5 -39 10 -39 6 0 10 -55
10 -145 0 -90 -4 -145 -10 -145 -5 0 -10 -18 -10 -40 0 -29 -4 -40 -15 -40 -8
0 -22 -18 -31 -40 -9 -22 -20 -40 -25 -40 -5 0 -9 -7 -9 -15 0 -7 -6 -18 -14
-22 -17 -9 -82 -98 -96 -130 -5 -12 -18 -28 -30 -35 -11 -7 -20 -23 -20 -35 0
-21 -53 -83 -71 -83 -5 0 -9 -4 -9 -9 0 -12 -59 -71 -71 -71 -5 0 -9 -18 -9
-40 0 -38 -2 -40 -30 -40 -28 0 -30 -2 -30 -40 0 -22 -4 -40 -10 -40 -5 0 -10
7 -10 15 0 11 -11 15 -40 15 -29 0 -40 -4 -40 -15 0 -9 -9 -15 -25 -15 -22 0
-25 4 -25 40 l0 40 -55 0 c-42 0 -55 3 -55 15 0 11 -11 15 -40 15 -36 0 -40 3
-40 25 0 27 -9 32 -28 13 -9 -9 -15 -9 -24 0 -17 17 -28 15 -28 -4 0 -14 -3
-14 -15 -4 -9 8 -15 30 -15 56 0 24 -4 44 -10 44 -5 0 -10 18 -10 40 0 29 -4
40 -15 40 -11 0 -15 11 -15 40 0 22 3 39 8 37 20 -6 11 20 -10 30 -35 18 -57
45 -40 50 7 3 12 21 12 44 0 26 4 37 13 35 6 -1 9 -1 5 1 -5 3 -8 22 -8 44 0
21 -4 39 -10 39 -5 0 -10 -18 -10 -40 0 -22 -4 -40 -10 -40 -12 0 -12 15 -4
99 4 34 12 61 18 61 12 0 62 70 58 82 -1 4 5 23 13 42 14 32 14 36 0 36 -15 0
-15 2 -1 22 9 12 16 33 16 45 0 40 32 93 56 93 15 0 24 8 28 25 4 14 11 25 16
25 6 0 10 12 10 26 0 16 10 34 26 46 14 11 23 26 20 34 -3 7 8 23 26 35 17 12
44 35 60 51 16 15 38 28 49 28 11 0 30 11 42 24 38 40 72 51 169 54 69 1 103
-2 131 -14z m-5383 -234 c0 -5 -4 -10 -10 -10 -5 0 -10 5 -10 10 0 6 5 10 10
10 6 0 10 -4 10 -10z m219 -162 c-9 -19 -9 -21 2 -10 17 15 43 16 33 0 -5 -8
-2 -9 9 -5 10 3 17 2 17 -4 0 -5 8 -13 18 -16 9 -4 25 -17 36 -30 12 -16 24
-22 37 -18 13 4 22 0 27 -12 4 -10 13 -19 21 -21 20 -4 101 -64 101 -74 0 -4
5 -8 11 -8 12 0 178 -122 216 -159 12 -11 25 -21 28 -21 7 0 31 -19 53 -43 9
-10 32 -25 50 -34 17 -8 32 -22 32 -29 0 -8 6 -14 13 -14 7 0 28 -13 47 -30
19 -16 41 -29 49 -30 8 0 11 -3 7 -7 -4 -4 8 -14 26 -23 18 -8 37 -24 43 -36
5 -11 16 -19 23 -16 6 2 12 -1 12 -8 0 -6 5 -8 10 -5 6 3 10 2 10 -4 0 -6 16
-18 35 -27 19 -9 35 -23 35 -30 0 -8 7 -15 15 -15 8 -1 19 -2 24 -3 17 -2 80
-63 73 -70 -3 -4 1 -4 11 0 11 4 17 1 17 -9 0 -9 12 -18 29 -22 17 -4 31 -14
34 -26 4 -16 11 -19 28 -14 18 6 21 4 16 -9 -4 -10 -1 -16 9 -16 17 0 44 -23
44 -38 0 -14 47 -35 61 -27 8 5 10 4 5 -3 -6 -11 6 -16 26 -13 12 2 48 -37 48
-51 0 -10 2 -10 8 -1 5 8 12 7 27 -4 20 -16 20 -16 0 -9 -20 6 -20 6 -1 -9 11
-8 27 -15 36 -15 24 0 60 -29 54 -44 -3 -8 7 -18 25 -26 19 -7 28 -17 24 -26
-3 -9 1 -14 12 -14 9 0 13 5 10 10 -3 6 -2 10 4 10 5 0 11 -10 13 -22 2 -13 9
-24 16 -24 36 -4 37 -4 22 -14 -13 -8 -13 -10 1 -10 9 0 24 -9 34 -20 10 -11
24 -20 30 -20 7 0 17 -6 23 -12 8 -10 4 -13 -14 -14 -15 -1 -24 4 -24 12 0 8
-4 14 -10 14 -5 0 -10 -13 -10 -28 0 -27 -15 -52 -32 -52 -4 0 -8 19 -8 41 l0
41 -46 -37 c-43 -36 -46 -36 -51 -16 -7 28 -36 27 -48 -1 -10 -22 -15 -23
-172 -26 -143 -2 -163 -5 -163 -19 0 -14 -13 -15 -120 -10 -115 7 -120 6 -120
-13 0 -19 -7 -20 -160 -20 -136 0 -160 2 -160 15 0 11 -11 15 -40 15 l-40 0 0
40 c0 22 -5 40 -10 40 -6 0 -22 12 -36 28 -17 18 -27 23 -31 15 -7 -19 -93
-16 -115 4 -25 22 -23 33 7 33 14 0 25 -4 25 -10 0 -5 18 -10 40 -10 22 0 40
5 40 10 0 6 -18 10 -40 10 -29 0 -40 4 -40 15 0 11 -11 15 -40 15 -36 0 -40 3
-40 24 0 18 6 25 22 28 l23 3 -25 23 c-17 15 -36 22 -66 22 -24 0 -47 6 -53
14 -10 12 -7 15 21 18 l33 3 -36 23 c-20 12 -41 33 -47 47 -6 13 -24 31 -41
39 -16 9 -35 29 -43 46 -7 16 -17 30 -21 30 -5 0 -8 15 -6 33 1 17 1 65 0 105
-1 57 -4 72 -16 72 -11 0 -15 12 -15 49 0 41 -4 53 -25 69 -31 25 -32 40 -2
44 l22 3 -22 20 c-19 16 -23 30 -23 77 0 45 -3 58 -15 58 -11 0 -15 11 -15 40
0 29 4 40 15 40 23 0 18 18 -12 45 -23 20 -26 26 -13 34 12 8 12 13 -4 30 -11
12 -25 21 -31 21 -7 0 -15 7 -19 15 -4 11 1 15 19 15 23 0 25 3 25 53 0 60 4
67 37 67 21 0 23 -2 12 -22z m3521 -248 c0 -5 16 -10 35 -10 24 0 35 -5 35
-15 0 -11 11 -15 41 -15 40 0 78 -27 79 -56 0 -7 16 -15 35 -18 19 -4 43 -18
54 -31 10 -14 29 -25 41 -25 12 0 31 -11 41 -24 11 -14 28 -28 39 -31 29 -9
25 -25 -6 -25 -22 0 -25 -2 -14 -15 7 -8 18 -15 25 -15 6 0 20 -9 31 -21 16
-17 16 -22 4 -30 -13 -8 -10 -14 13 -34 27 -24 35 -45 17 -45 -5 0 -10 -7 -10
-15 0 -8 5 -15 10 -15 6 0 10 7 10 15 0 8 7 15 15 15 13 0 15 -27 13 -207 -2
-154 -6 -207 -15 -211 -7 -2 -13 3 -13 11 0 9 -10 15 -24 15 -12 0 -36 7 -52
16 -16 8 -41 21 -56 28 -16 7 -28 16 -28 20 0 4 -8 8 -19 8 -10 0 -24 7 -31
15 -7 8 -17 15 -23 15 -5 0 -25 11 -43 25 -18 14 -42 25 -53 25 -12 0 -21 4
-21 10 0 5 -18 19 -40 30 -22 11 -40 25 -40 30 0 6 -6 10 -14 10 -8 0 -21 6
-28 13 -31 29 -99 67 -121 67 -13 0 -28 -5 -35 -12 -9 -9 -12 -7 -12 9 0 15
-11 25 -39 36 -64 26 -93 69 -53 81 9 2 1 2 -19 -1 -30 -4 -41 0 -67 27 -28
27 -29 30 -9 24 12 -4 24 -11 25 -15 6 -14 22 -10 22 5 0 8 -21 32 -47 53 -80
64 -138 126 -152 161 -12 29 -12 35 3 50 15 15 16 15 16 -1 0 -9 5 -17 10 -17
6 0 10 4 10 8 0 5 6 17 14 27 12 16 16 17 30 6 14 -12 16 -10 16 13 0 28 24
37 33 12 3 -7 15 -16 26 -19 16 -4 21 0 21 14 0 17 8 19 103 19 56 0 109 5
117 10 20 13 100 13 100 0z m960 -506 c0 -14 -3 -14 -15 -4 -8 7 -15 14 -15
16 0 2 7 4 15 4 8 0 15 -7 15 -16z m647 -146 c-3 -8 -6 -5 -6 6 -1 11 2 17 5
13 3 -3 4 -12 1 -19z m-2087 -11 c0 -7 9 -18 21 -25 16 -11 18 -16 9 -28 -18
-21 -25 -18 -38 19 -15 41 -15 47 -2 47 6 0 10 -6 10 -13z m1680 -12 c0 -29
-7 -31 -32 -8 -25 22 -23 33 7 33 20 0 25 -5 25 -25z m390 21 c0 -3 -5 -17
-11 -33 -10 -26 -12 -27 -19 -8 -14 33 -11 45 10 45 11 0 20 -2 20 -4z m-3775
-36 c3 -5 2 -10 -4 -10 -5 0 -13 5 -16 10 -3 6 -2 10 4 10 5 0 13 -4 16 -10z
m6413 2 c7 -5 10 -16 7 -25 -5 -11 0 -16 21 -19 27 -3 27 -4 9 -21 -14 -15
-20 -16 -27 -5 -7 10 -11 9 -23 -6 -12 -15 -26 -18 -82 -17 -118 2 -172 21
-102 35 19 3 28 10 23 17 -4 8 3 9 25 4 18 -4 31 -3 31 3 0 10 65 40 90 41 8
0 21 -3 28 -7z m-2680 -45 c12 -3 10 -5 -5 -6 -18 -1 -23 4 -22 22 1 15 3 17
6 5 2 -9 12 -19 21 -21z m-1921 7 c-3 -3 -12 -4 -19 -1 -8 3 -5 6 6 6 11 1 17
-2 13 -5z m-7 -29 c0 -8 -4 -15 -10 -15 -5 0 -10 7 -10 15 0 8 5 15 10 15 6 0
10 -7 10 -15z m-40 -4 c0 -14 -18 -23 -30 -16 -6 4 -8 11 -5 16 8 12 35 12 35
0z m1843 -81 c-7 -16 -25 -31 -38 -34 -14 -4 -25 -10 -25 -15 0 -5 -15 -12
-32 -16 -58 -12 -67 -16 -62 -29 6 -16 -23 -29 -32 -14 -4 5 -1 14 6 18 9 5 9
9 1 14 -6 4 -14 0 -17 -8 -7 -18 -24 -22 -24 -5 0 17 27 39 42 34 10 -4 12 5
10 40 l-4 45 94 -1 95 -2 -14 -27z m77 26 c0 -11 -19 -15 -25 -6 -3 5 1 10 9
10 9 0 16 -2 16 -4z m-300 -61 c0 -8 -7 -15 -16 -15 -14 0 -14 3 -4 15 7 8 14
15 16 15 2 0 4 -7 4 -15z m20 -95 c0 -15 -36 -21 -61 -10 -22 10 -21 10 9 6
24 -4 32 -2 32 10 0 8 5 12 10 9 6 -3 10 -10 10 -15z m-50 -30 c0 -5 -32 -26
-71 -45 -39 -19 -86 -48 -104 -63 -18 -15 -52 -40 -74 -56 -23 -17 -41 -33
-41 -38 0 -4 -8 -8 -17 -9 -17 0 -17 -1 0 -7 15 -6 11 -11 -22 -32 -53 -33
-61 -50 -66 -126 -4 -55 -2 -65 10 -60 11 4 15 -2 15 -18 0 -16 7 -26 21 -29
11 -3 23 -15 26 -26 3 -14 13 -21 29 -21 35 0 106 -31 129 -56 12 -13 33 -26
48 -29 15 -4 27 -13 27 -21 0 -8 4 -14 10 -14 14 0 60 -49 60 -65 0 -22 19
-18 41 8 l18 22 1 -22 c0 -13 5 -23 10 -23 6 0 10 -9 10 -20 0 -11 7 -20 15
-20 8 0 15 5 15 11 0 6 6 9 13 6 6 -2 10 -12 9 -22 -3 -17 -2 -17 15 -4 10 7
21 18 25 24 4 5 11 6 15 1 4 -5 2 -11 -4 -13 -7 -3 -13 -12 -13 -20 0 -11 7
-14 26 -9 20 5 27 3 31 -12 5 -20 42 -45 59 -41 5 1 21 -4 36 -11 28 -13 58
-10 178 20 70 18 138 21 147 7 4 -7 26 -21 49 -31 22 -10 58 -34 80 -55 21
-20 60 -50 86 -67 27 -16 48 -32 48 -36 0 -5 5 -8 11 -8 6 0 32 -17 58 -38 25
-21 68 -54 95 -72 27 -18 57 -40 66 -49 33 -30 72 -61 76 -61 9 0 53 -55 54
-67 0 -6 35 -46 78 -88 112 -110 117 -115 135 -115 17 0 42 -36 29 -43 -4 -2
-1 -2 6 -1 6 2 19 1 27 -2 18 -7 21 -74 3 -92 -30 -30 -85 -1 -108 56 -11 28
-17 32 -49 32 -31 0 -39 -4 -48 -27 -11 -28 -11 -28 -12 10 -1 35 -13 48 -26
27 -3 -5 -17 -10 -29 -10 -13 0 -30 -10 -38 -22 -13 -19 -18 -21 -30 -10 -20
16 -29 -3 -18 -33 7 -18 8 -19 15 -2 9 21 25 23 25 2 0 -12 13 -15 58 -15 53
0 58 -2 75 -31 23 -41 22 -49 -8 -49 -20 0 -25 5 -25 24 0 22 -5 23 -77 30
-42 3 -79 3 -82 -2 -3 -4 -18 -13 -33 -19 -16 -7 -28 -17 -28 -23 0 -5 -6 -10
-14 -10 -25 0 -86 -70 -86 -99 0 -22 -7 -30 -37 -41 l-38 -14 30 -7 30 -7 -32
-1 c-18 0 -33 4 -33 9 0 6 -3 9 -7 8 -5 -1 -18 3 -31 10 -12 7 -28 12 -35 10
-15 -3 -57 20 -57 32 0 5 8 11 18 13 9 3 3 5 -15 6 -17 0 -33 4 -35 9 -1 4
-23 20 -48 36 -25 16 -57 37 -72 48 -15 10 -30 18 -34 18 -3 0 -20 11 -38 25
-17 14 -36 29 -41 33 -6 4 -28 20 -50 37 -22 16 -43 29 -47 27 -5 -1 -8 2 -8
6 0 5 -16 17 -35 28 -19 10 -35 22 -35 26 0 5 -6 8 -13 8 -7 0 -19 9 -27 20
-8 11 -19 20 -25 20 -6 0 -21 14 -33 30 -13 17 -28 30 -35 30 -9 0 -11 16 -8
53 2 28 4 81 5 117 1 54 5 68 23 82 14 12 23 33 26 65 11 104 32 163 56 163
12 0 12 3 3 12 -17 17 -184 18 -189 1 -3 -7 2 -13 11 -13 9 0 16 -8 16 -19 0
-10 3 -34 6 -52 l5 -34 -15 25 c-8 14 -15 19 -16 13 0 -18 -20 -16 -20 2 0 20
-10 19 -26 -2 -13 -17 -15 -17 -28 0 -7 9 -20 17 -29 17 -8 0 -24 11 -35 25
-11 14 -30 25 -44 25 -13 0 -31 8 -40 18 -33 34 -48 42 -83 42 -23 0 -35 5
-35 14 0 7 -9 16 -19 19 -11 3 -28 18 -38 34 -10 17 -22 30 -28 29 -5 -1 -11
18 -13 42 -2 25 1 42 7 42 6 0 11 5 11 10 0 6 -11 10 -24 10 -14 0 -28 -4 -31
-10 -3 -5 -1 -10 4 -10 6 0 11 -9 11 -20 0 -11 -3 -20 -7 -20 -12 0 -33 51
-33 77 0 20 -5 23 -40 23 -22 0 -40 -5 -40 -11 0 -5 -5 -7 -10 -4 -16 10 8 35
34 35 18 1 19 2 4 10 -11 7 -27 4 -55 -9 -21 -11 -59 -30 -85 -42 -27 -12 -48
-26 -48 -31 0 -4 -8 -8 -18 -8 -18 0 -57 -74 -47 -90 3 -5 1 -11 -5 -15 -6 -4
-10 8 -10 29 0 19 5 38 10 41 6 3 10 18 10 33 0 26 18 60 46 89 7 7 14 16 16
21 6 15 66 52 86 52 10 0 33 -7 51 -16 47 -23 65 -13 57 34 -13 77 -18 92 -26
92 -5 0 -14 16 -20 35 -10 31 -9 40 12 77 13 24 37 50 53 58 17 9 41 27 55 40
78 76 183 160 200 160 7 0 23 9 37 20 14 11 32 20 39 20 8 0 14 5 14 10 0 6
11 10 25 10 14 0 25 -4 25 -10z m-4217 -57 c-7 -2 -19 -2 -25 0 -7 3 -2 5 12
5 14 0 19 -2 13 -5z m7 -43 c0 -5 -4 -10 -10 -10 -5 0 -10 5 -10 10 0 6 5 10
10 10 6 0 10 -4 10 -10z m6000 -91 c0 -11 7 -19 18 -19 12 0 10 -4 -8 -13 -36
-19 -125 -47 -149 -47 -10 0 -21 -6 -24 -12 -3 -9 -7 -7 -12 5 -6 14 4 30 41
65 45 43 53 47 92 43 33 -2 42 -7 42 -22z m-1600 -1185 c0 -2 -7 -4 -15 -4 -8
0 -15 4 -15 10 0 5 7 7 15 4 8 -4 15 -8 15 -10z m4651 -192 c6 -7 8 -16 4 -20
-4 -4 -10 -1 -12 6 -3 6 -13 12 -24 12 -20 0 -23 8 -12 36 6 16 7 15 19 -2 7
-10 18 -25 25 -32z m185 33 c-23 -17 -36 -19 -36 -6 0 11 18 19 40 20 11 0 10
-3 -4 -14z m-56 -26 c0 -5 -8 -9 -18 -9 -10 0 -23 -5 -30 -12 -17 -17 -15 4 4
30 13 18 19 21 30 11 8 -6 14 -15 14 -20z m-72 -27 c3 -11 -56 -47 -64 -39 -7
7 40 57 50 54 6 -2 11 -8 14 -15z m-3328 -27 c0 -8 -4 -15 -10 -15 -5 0 -10 7
-10 15 0 8 5 15 10 15 6 0 10 -7 10 -15z m1625 -111 c24 -57 108 -144 138
-144 8 0 22 -9 32 -20 10 -11 22 -20 27 -20 22 0 127 -92 128 -112 0 -4 -4 -9
-9 -13 -6 -3 -4 -23 5 -49 12 -34 24 -48 50 -61 41 -19 44 -42 7 -47 -59 -7
-226 47 -246 79 -4 7 -13 13 -20 13 -19 1 -69 51 -104 105 -18 28 -37 56 -43
62 -13 16 -22 63 -25 134 -1 31 -5 61 -9 68 -5 7 -3 25 4 41 11 27 13 28 32
12 10 -10 25 -31 33 -48z m1307 -391 c-6 -10 -8 -32 -6 -48 l4 -30 -9 28 c-9
26 5 85 16 73 3 -2 0 -13 -5 -23z m30 -45 c-3 -31 -9 -48 -17 -48 -16 0 -9 67
9 86 14 15 13 18 8 -38z m-35 -64 c-9 -9 -28 6 -21 18 4 6 10 6 17 -1 6 -6 8
-13 4 -17z m-47 -14 c0 -5 -5 -10 -11 -10 -5 0 -7 5 -4 10 3 6 8 10 11 10 2 0
4 -4 4 -10z m30 -25 c0 -8 -4 -15 -10 -15 -5 0 -10 7 -10 15 0 8 5 15 10 15 6
0 10 -7 10 -15z m-43 -21 c-3 -3 -12 -4 -19 -1 -8 3 -5 6 6 6 11 1 17 -2 13
-5z m-10 -46 c-3 -8 -6 -5 -6 6 -1 11 2 17 5 13 3 -3 4 -12 1 -19z m-35 -28
c-9 -21 -18 -35 -20 -30 -3 9 25 70 33 70 2 0 -4 -18 -13 -40z m31 -15 c-7
-21 -13 -19 -13 6 0 11 4 18 10 14 5 -3 7 -12 3 -20z m-26 -62 c-3 -10 -5 -4
-5 12 0 17 2 24 5 18 2 -7 2 -21 0 -30z m-24 7 c3 -11 1 -20 -4 -20 -5 0 -9 6
-9 13 0 8 -4 7 -10 -3 -11 -17 -13 -10 -4 14 8 22 21 20 27 -4z m57 -42 c0
-19 -2 -20 -10 -8 -13 19 -13 30 0 30 6 0 10 -10 10 -22z m-94 -20 c-18 -26
-22 -17 -5 14 6 11 13 17 16 15 3 -3 -2 -16 -11 -29z m-2106 -24 c0 -8 -4 -14
-10 -14 -5 0 -10 9 -10 21 0 11 5 17 10 14 6 -3 10 -13 10 -21z m2367 -106
c-3 -8 -6 -5 -6 6 -1 11 2 17 5 13 3 -3 4 -12 1 -19z m-2130 -57 c13 -22 8
-31 -19 -31 -13 0 -18 7 -18 25 0 30 20 33 37 6z m2112 -51 c1 25 5 39 8 32 2
-6 9 -10 14 -6 5 3 9 -4 9 -15 0 -11 5 -23 11 -26 6 -4 8 -14 5 -22 -3 -8 3
-26 13 -39 15 -18 18 -34 14 -67 -7 -55 -19 -67 -28 -28 -6 26 -9 30 -21 20
-8 -6 -15 -21 -15 -33 -1 -23 -13 25 -31 125 -7 40 -8 77 -2 95 7 27 9 25 14
-26 l7 -55 2 45z m-180 -87 c8 -17 16 -114 13 -155 -3 -26 -18 -22 -42 12 -16
22 -22 45 -22 81 1 68 29 102 51 62z"/>
<path d="M4802 8420 c0 -14 2 -19 5 -12 2 6 2 18 0 25 -3 6 -5 1 -5 -13z"/>
<path d="M14145 7930 c-3 -5 -1 -10 4 -10 6 0 11 5 11 10 0 6 -2 10 -4 10 -3
0 -8 -4 -11 -10z"/>
<path d="M13985 7290 c-3 -5 -1 -10 4 -10 6 0 11 5 11 10 0 6 -2 10 -4 10 -3
0 -8 -4 -11 -10z"/>
<path d="M4660 6370 c0 -5 5 -10 10 -10 6 0 10 5 10 10 0 6 -4 10 -10 10 -5 0
-10 -4 -10 -10z"/>
<path d="M2014 6849 c-3 -6 -1 -16 5 -22 8 -8 11 -5 11 11 0 24 -5 28 -16 11z"/>
<path d="M1753 6600 c0 -25 2 -35 4 -22 2 12 2 32 0 45 -2 12 -4 2 -4 -23z"/>
<path d="M2320 6256 c0 -13 -12 -16 -70 -16 l-70 0 0 -40 0 -40 85 0 85 0 0
44 c0 26 -6 48 -15 56 -12 10 -15 10 -15 -4z"/>
<path d="M2400 6130 c0 -5 18 -10 40 -10 22 0 40 5 40 10 0 6 -18 10 -40 10
-22 0 -40 -4 -40 -10z"/>
<path d="M1420 5630 c-13 -8 -12 -10 3 -10 9 0 17 5 17 10 0 12 -1 12 -20 0z"/>
<path d="M9513 5160 c0 -25 2 -35 4 -22 2 12 2 32 0 45 -2 12 -4 2 -4 -23z"/>
<path d="M5005 5439 c-4 -6 -5 -12 -2 -15 2 -3 7 2 10 11 7 17 1 20 -8 4z"/>
<path d="M5063 5080 c0 -25 2 -35 4 -22 2 12 2 32 0 45 -2 12 -4 2 -4 -23z"/>
<path d="M6562 4368 c5 -15 28 -23 28 -10 0 5 -7 13 -16 16 -10 4 -14 1 -12
-6z"/>
<path d="M9040 4640 c0 -47 4 -80 10 -80 6 0 10 33 10 80 0 47 -4 80 -10 80
-6 0 -10 -33 -10 -80z"/>
<path d="M9935 4360 c4 -6 11 -8 16 -5 14 9 11 15 -7 15 -8 0 -12 -5 -9 -10z"/>
</g>
</svg>
