<?xml version="1.0" standalone="no"?>
<!DOCTYPE svg PUBLIC "-//W3C//DTD SVG 20010904//EN"
 "http://www.w3.org/TR/2001/REC-SVG-20010904/DTD/svg10.dtd">
<svg version="1.0" xmlns="http://www.w3.org/2000/svg"
 width="920.000000pt" height="920.000000pt" viewBox="0 0 920.000000 920.000000"
 preserveAspectRatio="xMidYMid meet">

<g transform="translate(0.000000,920.000000) scale(0.100000,-0.100000)"
fill="#000000" stroke="none">
<path d="M2475 8044 c-11 -2 -45 -9 -75 -15 -244 -48 -486 -244 -594 -481 -66
-143 -86 -261 -86 -500 l0 -148 -285 0 -285 0 0 -290 0 -290 575 0 574 0 3
473 3 472 27 51 c28 53 76 101 131 131 30 17 143 18 2137 18 l2105 0 40 -22
c50 -27 96 -75 126 -133 l24 -45 0 -2665 0 -2665 -24 -45 c-30 -58 -76 -106
-126 -133 l-40 -22 -2105 0 c-1994 0 -2107 1 -2137 18 -55 30 -103 78 -131
131 -25 49 -27 59 -30 234 l-4 182 -290 0 -291 0 6 -202 c5 -228 26 -337 87
-459 127 -252 371 -435 640 -478 44 -7 738 -11 2151 -11 1854 0 2096 2 2169
16 167 31 306 102 427 218 132 125 211 259 256 433 l22 88 0 2695 c0 2483 -1
2701 -17 2766 -78 335 -336 591 -667 665 -83 18 -157 19 -2191 18 -1158 -1
-2114 -3 -2125 -5z"/>
<path d="M4448 6315 c-261 -36 -493 -156 -679 -352 -342 -359 -416 -876 -188
-1314 45 -86 111 -182 161 -236 l30 -31 -28 -18 c-186 -115 -316 -222 -438
-359 -196 -222 -336 -500 -396 -790 -21 -97 -43 -322 -34 -337 3 -4 133 -8
290 -8 l284 0 0 36 c0 67 31 243 56 321 119 370 424 659 799 758 123 33 336
44 466 25 279 -40 550 -195 720 -410 153 -195 225 -373 251 -617 l12 -113 282
0 c180 0 285 4 289 10 8 13 -12 225 -31 320 -49 246 -157 487 -312 696 -139
188 -290 322 -531 471 l-23 15 30 31 c172 183 292 493 292 756 0 299 -112 576
-319 794 -195 206 -439 326 -723 357 -117 12 -135 12 -260 -5z m275 -580 c109
-23 192 -69 278 -155 117 -116 169 -239 169 -400 0 -162 -47 -283 -153 -396
-104 -112 -224 -168 -378 -180 -166 -12 -311 41 -434 158 -119 112 -175 247
-175 420 0 150 49 273 151 382 143 153 338 214 542 171z"/>
<path d="M1720 5465 l0 -285 -285 0 -285 0 0 -290 0 -290 575 0 575 0 0 575 0
575 -290 0 -290 0 0 -285z"/>
<path d="M1727 4023 c-4 -3 -7 -134 -7 -290 l0 -283 -285 0 -285 0 0 -290 0
-290 575 0 575 0 0 580 0 580 -283 0 c-156 0 -287 -3 -290 -7z"/>
</g>
</svg>
